<svg xmlns="http://www.w3.org/2000/svg" xml:space="preserve" viewBox="0 0 164.8 63.1">
  <path fill="#FFF" d="M131.7 36.8c0 1.4-.5 2.6-1.5 3.4-.9.7-2 1.1-3.2 1.1-1.3 0-2.3-.4-3.2-1.1-1-.8-1.5-2-1.5-3.4V26.1h3.1v10.7c0 .5.2.8.5 1.1.3.3.7.4 1.1.4 1 0 1.5-.5 1.5-1.5V26.1h3.1v10.7m9.1 0v-6.1c0-1-.5-1.5-1.5-1.5-1.1 0-1.6.5-1.6 1.5v7.6h1.5c.4 0 .8-.1 1.1-.4.4-.3.5-.7.5-1.1m3.2 0c0 1.3-.5 2.4-1.5 3.2-1 .9-2.1 1.3-3.2 1.3h-1.5v6.1h-3.1V30.7c0-1.4.5-2.6 1.5-3.4.9-.8 1.9-1.1 3.2-1.1 1.3 0 2.3.4 3.2 1.2 1 .8 1.5 1.9 1.5 3.4v6zm12.2-6.1H153c0-.4-.2-.8-.5-1.1-.3-.3-.7-.4-1.1-.4-.5 0-.8.2-1.1.5-.3.3-.4.7-.4 1.1 0 1 .5 1.5 1.5 1.6 1.5 0 2.7.5 3.5 1.4.8.8 1.2 1.8 1.2 3s-.4 2.2-1.2 3.1c-.9 1-2 1.5-3.5 1.5-1.3 0-2.4-.4-3.3-1.3-.9-.9-1.4-2-1.4-3.3h3.1c0 .4.1.8.4 1.1.3.3.7.4 1.1.4 1 0 1.5-.5 1.5-1.5s-.5-1.5-1.6-1.6c-1.5 0-2.6-.5-3.5-1.5-.8-.8-1.2-1.9-1.2-3.1 0-1.2.4-2.2 1.2-3.1.9-.9 2-1.4 3.5-1.4 1.3 0 2.5.4 3.4 1.4 1 1 1.5 2 1.5 3.2m-97.2-7.1h-2.3c-.7 0-1.3.2-1.6.7-.4.5-.6 1-.6 1.5v15.5h-4.5V25.8c0-1.8.6-3.4 2-4.7 1.3-1.3 2.9-1.9 4.8-1.9H59v4.4m7.5 17.8H62V19.2h4.5v22.2zm0-26.7H62v-4.4h4.5v4.4zm16.7 11.2c0-2.1-.7-3.8-2.2-5-1.3-1.1-2.8-1.7-4.7-1.7-1.8 0-3.4.6-4.7 1.7-1.4 1.2-2.1 2.9-2.1 5v8.9c0 2.1.7 3.7 2 4.9 1.2 1.1 2.7 1.6 4.5 1.6 1.8 0 3.4-.6 4.8-1.8 1.4-1.2 2.2-2.8 2.3-4.8h-4.5c0 1.4-.8 2.1-2.2 2.1-.6 0-1.2-.2-1.7-.6-.5-.4-.7-.9-.7-1.5v-2.3h9.1v-6.5M74 28.1v-2.2c0-.7.2-1.2.7-1.6.5-.4 1-.6 1.6-.6 1.5 0 2.3.7 2.3 2.2v2.2H74zm12.3-17.8h4.5v31.1h-4.5zm7.5 0h4.5v31.1h-4.5zm21.3 15.5c0-2-.7-3.7-2.1-4.9-1.3-1.1-2.9-1.7-4.8-1.7-1.8 0-3.4.5-4.7 1.6-1.4 1.2-2.1 2.9-2.1 5v8.9c0 2.1.7 3.7 2.1 5 1.3 1.1 2.8 1.6 4.7 1.6 1.8 0 3.4-.5 4.7-1.6 1.4-1.2 2.1-2.9 2.1-5v-8.9m-6.7 11.1c-1.6 0-2.3-.7-2.3-2.2v-8.9c0-1.5.8-2.2 2.3-2.2 1.5 0 2.3.7 2.3 2.2v8.9c0 1.5-.8 2.2-2.3 2.2M44.2 10.3v31.4H30.8c0-.2.1-.5.1-.8.3-1.2.9-2.6 1.8-4.1 10.9-17 8.9-27.8-16.8-23.2 1.2.8 2.1 3.1 2.4 5.1l.3 1.8c2.3-1 12.1-5.2 16.6-2.7 5.1 2.9-3.8 10.2-9.1 17-.5.7-2.3 3.1-2.8 6.1 0 .2-.1.5-.1.8H12V10.3h32.2z"/>
  <path fill="#FFF" d="M43.9 50.8c-.1 0-8.1-.8-11.2-4.7-1-1.2-1.3-2.6-1.1-4.2v-.1l.1-.8H31c-.1.3-.1.5-.1.8-1.2 8.5 13 9.8 13 9.8s-3.5 1.8-11.7-.7c-7.3-2.2-9.1-5.9-8.8-9.1 0-.2 0-.5.1-.8h-.8v.7c-.2 3.2 1.3 7.5 9.4 9.9 3.4 1 6 1.3 8 1.3 2.9 0 4.2-.6 4.3-.7l2.4-1.2-2.9-.2zM9 41l.7.1v-.4c0-.1-.1-.1-.1-.1h-.2c-.1 0-.1 0-.2.1-.1 0-.1.1-.1.2-.1-.1-.1 0-.1.1m1.9.4H8.7v-.5c0-.2.1-.4.2-.5.1-.1.3-.2.4-.2.1 0 .2 0 .3.1.1.1.2.2.2.3 0-.1.1-.1.2-.2s.2-.2.4-.3c.1-.1.2-.1.3-.2l.2-.1v.4l-.1.1-.1.1-.2.1-.2.1c-.1.1-.2.1-.2.2-.1-.1-.1 0-.1 0v.3h.9v.3zm-2.2-2.2h2.2v.3H8.7zm0-.5v-1.2H9v.9h.6v-.9h.3v.9h.7v-.9h.3v1.2zm0-1.5v-.4h1.9v-.9h.3v1.3zm0-1.6v-.3h1.9v-1h.3v1.3zM9 33c0 .2.1.4.2.6.2.2.4.2.6.2.2 0 .4-.1.6-.2.2-.2.2-.4.2-.6 0-.2-.1-.4-.2-.6-.2-.2-.4-.2-.6-.2-.2 0-.4.1-.6.2-.2.1-.2.3-.2.6m-.3 0c0-.3.1-.6.3-.8.2-.2.5-.3.8-.3.3 0 .6.1.8.3.2.2.3.5.3.8 0 .3-.1.6-.3.8-.2.2-.5.3-.8.3-.3 0-.6-.1-.8-.3-.2-.2-.3-.5-.3-.8m0-2.4v-1.3H9v1h.6v-.9h.3v.9h.7v-1h.3v1.3zm0-1.6v-.3h1.9v-1h.3V29zm0-1.6v-1.2H9v.9h.6v-.9h.3v.9h.7v-.9h.3v1.2zm0-1.4v-1.8H9v.8h1.9v.3H9v.7zm0-1.9v-1.8H9v.8h1.9v.3H9v.7zm.3-2.5.7.1v-.4c0-.1-.1-.1-.1-.1h-.4c-.1 0-.1.1-.1.2-.1 0-.1.1-.1.2m1.9.4H8.7v-.5c0-.2.1-.4.2-.5.1-.1.3-.2.4-.2.1 0 .2 0 .3.1.1.1.2.2.2.3 0-.1.1-.1.2-.2s.2-.2.4-.3c.1-.1.2-.1.3-.2l.2-.1v.4l-.1.1-.1.1h-.2l-.2.1c-.1.1-.2.1-.2.2-.1 0-.1.1-.1.1v.3h.9v.3zM9 19.2c0 .2.1.5.2.6.2.2.4.2.6.2.2 0 .4-.1.6-.2.2-.2.2-.4.2-.6 0-.2-.1-.4-.2-.6-.2-.2-.4-.2-.6-.2-.2 0-.4.1-.6.2-.2.2-.2.4-.2.6m-.3.1c0-.3.1-.6.3-.8.2-.2.5-.3.8-.3.3 0 .6.1.8.3.2.2.3.5.3.8 0 .3-.1.6-.3.8-.2.2-.5.3-.8.3-.3 0-.6-.1-.8-.3-.2-.2-.3-.5-.3-.8m0-3.3v-.3h2.2v.3l-1.7 1.4h1.7v.3H8.7v-.2l1.7-1.5zm0-1.1h2.2v.3H8.7zm1.7-2.3h.3c.1.2.2.5.2.8 0 .2 0 .4-.1.6-.1.2-.2.3-.4.4-.2.1-.4.1-.5.1-.3 0-.6-.1-.8-.3-.2-.2-.3-.5-.3-.8 0-.2.1-.5.2-.8h.3c-.3.3-.3.5-.3.8 0 .2.1.5.2.6.2.2.4.2.6.2.2 0 .4-.1.6-.2.2-.2.2-.4.2-.6 0-.3-.1-.5-.2-.8M10 11l-.7.3.7.3V11zm-1.2.4v-.2l2-.9v.3l-.6.3v.8l.6.3v.3l-2-.9z"/>
</svg>