<svg xmlns="http://www.w3.org/2000/svg" data-name="Layer 2" viewBox="0 0 466.22 188.15">
  <path fill="#111827" d="M.58 1.27h93.7c-.03.9-.2 1.79-.51 2.64.01.5-.01 1-.08 1.49-.11.51-.25 1-.43 1.49-.2.71 0 1.55-.26 2.22-.8 2.55-1.91 5.06-2.88 7.37-.22.7-.5 1.37-.85 2.01-.21.32-.6.4-.93.61-.91.63-1.74 1.38-2.46 2.22v.36c-.14.3-.53.61-.68.88-.29.51-.39.98-.68 1.49-.29.29-.58.58-.85.88-.24.48-.44.98-.6 1.49-.4.92-1.11 1.93-1.53 2.8-.12.26-.06.43-.17.7-.22.53-.67 1.11-.85 1.67-.11.64-.31 1.26-.59 1.85-.64.93-1.84 1.42-2.46 2.37-.3.44-.38.96-.69 1.4-.42.62-1.33.98-1.7 1.67-.3.79-.52 1.61-.68 2.45.01.33-.02.65-.09.97-.09.32-.52 1.11-.68 1.58v1.23c-.18.46-.5 1.11-.68 1.66.02.3-.01.59-.09.88-.45 1.11-.96 2.19-1.53 3.25-.28.63-.31 1.11-.59 1.76-.76 1.59-1.64 3.11-2.64 4.56-.73 1.11-1.18 2.35-1.86 3.5-.35.51-.78.96-1.28 1.32-.37.43-.73.88-1.11 1.31-.84.66-1.69 1.43-2.54 2.01-.42.29-.85.36-1.28.62-.18.2-.34.4-.51.61-.69.42-1.51.54-2.22.97-.16.09-.16.3-.26.43-.26.23-.55.44-.85.61-.3.2-.75.31-.93.62-.23.47-.4.97-.51 1.48 0 .16-.3.39-.34.53-.16.49 0 .81-.17 1.22-.17.41-.73.66-.85 1.23h-.26c-.1.12-.17.26-.22.41-.04.15-.06.31-.04.46.19.17.43.26.69.26.45-.7 1.28-1.19 1.61-2.01s.38-2.74 1.19-3.25l.77-.27c.23-.13.54-.5.77-.61l.6-.09c.56-.4 1.16-.75 1.79-1.05.72-.26 1.53 0 2.22-.27.69-.27 1.11-.56 1.7-.88v.77c-.62 1.11.45 3.96 0 5.56-.41 1.07-.92 2.1-1.53 3.07-.22.73-.45 1.47-.68 2.22-.44.9-1.11 1.85-1.53 2.72-.18.34-.14.66-.34.97-.21.25-.41.51-.59.79 0 .63-.12 1.28-.18 1.92 0 .16-.29.47-.33.61-.2 1.69-.23 3.4-.09 5.09.1.36.16.74.17 1.11-.2 1.11-1.72 1.65-3.05 1.67-.53 1.52-2.6 1.56-3.9 2.22-1.31.67-2.43 1.3-3.57 2.02-.3.18-.62.6-.93.79l-.85.17c-.29.12-.63.48-.93.62-.71.25-1.4.57-2.04.96-.38.27-.79.73-1.19.97-.4.23-.55.16-.85.34-.3.19-.29.41-.42.62-.34.17-.64 0-.93.17l-.27.36c-.83.39-2.1-.21-3.05.09-1.73.54-3.33 1.11-3.41 3.43.83-.13 2-2.02 2.98-2.37l2.12-.09c.3-.08 1-.27 1.28-.36l1.35-.09c.45-.29.88-.61 1.28-.97.43-.27.97-.17 1.45-.43.49-.27.73-.6 1.11-.79.38-.19 1.11-.13 1.7-.34.19-.08.37-.37.51-.44.61-.32 1.31-.26 1.87-.61.17-.18.33-.36.51-.52.64-.36 1.11-.46 1.77-.79.67-.33 1.35-1.11 2.04-1.49.22-.12.41 0 .6-.18.41-.34.83-.67 1.28-.97l1.11-.27c.29-.12.55-.48.85-.61.3-.13.77-.14 1.28-.34.83-.56 1.6-1.21 2.3-1.93h.33c-.09 1.14-.03 2.3.18 3.43.1.37.67.85.51 1.4-.08.24-.43.62-.51.88-.1.62-.01 1.26.26 1.83 0 .41-.07.82-.09 1.23-.03 1.03.05 2.06.26 3.07v2.01c.16.65.52 1.4.68 2.02.06.64.09 1.28.09 1.92.16.35.27.73.33 1.11H.58V1.27Zm229.39 0v109.64H66.16c.01-.45-.04-.89-.17-1.32-.32-1.11.21-2.56-.09-3.59-.3-1.03-1.11-2.04-1.35-3.07-.38-1.48.68-2.72.42-3.68-.1-.24-.21-.48-.34-.7 0-.88 0-1.76-.08-2.64-.12-.55 0-1.39-.18-2.1l-.51-2.02v-2.8c-.13-.57-.53-1.11-.68-1.67v-1.11c-.26-.76-1.7-1.93-1.44-3.07.17-.57.37-1.12.6-1.67.36-.25.76-.43 1.19-.52.1-1.22.53-1.36.93-2.11l.17-.79c.16-.37.47-.82.6-1.22v-.44l.42-.34c-.01-.15.02-.31.09-.44.09-.16.34-.37.42-.52.33-.63.57-1.27 1.44-1.31.52.68 1.1 1.32 1.71 1.92l.68.61c.02.18.04.36.08.53.45 1.02.96 2.02 1.53 2.98.43.52.95.97 1.53 1.31l.85.97c.52.37 1.31.54 1.7 1.11.7.9 1.42 3.5 2.72 3.59.09-.09.15-.2.2-.32s.06-.25.06-.38c-.34-.26-.29-.48-.51-.88-.22-.4-.67-.81-.85-1.22-.18-.76-.44-1.51-.75-2.22-.43-.66-1.55-.58-2.04-1.11-.31-.51-.6-1.04-.85-1.58l-1.02-1.11c-.2-.29-.22-.66-.42-.96-.2-.3-.41-.21-.51-.36-.24-.37-.27-.8-.51-1.11-.24-.31-.62-.29-.85-.53-.23-.24-.28-.8-.51-1.11-.23-.31-.72-.48-.93-.79l-.33-1.11c-.36-.53-1.01-.72-1.28-1.4-.38-1.66-.17-3.39.59-4.92l.6-.7c.51-.82.74-1.73 1.28-2.55.84-.91 1.75-1.76 2.72-2.54.27-.29.3-.91.59-1.11.67-.35 1.39-.62 2.13-.79.29-.12.59-.5.85-.61 1.2-.52 2.88.22 4.07.09.39.08.77.22 1.11.43h.57c.68.27 1.31.65 1.87 1.11.59.43 1.21.8 1.86 1.11.34.13.63.07.94.26v.09l1.28 1.22c.2.37.13.96.33 1.32.11.18.43.39.51.61v2.46c.22.48.39.98.51 1.49.16 1.11-.34 2.55.85 2.62.23-.43.32-.92.26-1.4-.15-.66-.18-1.34-.09-2.01.02-.98-.06-1.96-.23-2.92v-1.11s-.91-1.65-.93-1.67l-1.02-.27c-.26-.17-.26-.51-.42-.78-.26-.43-.6-.8-1.01-1.09-.41-.29-.88-.48-1.37-.58v-.27c-1.65-1.03-3.87-1.61-5.6-2.55-.58-.3-1.53-.43-1.79-1.05.02-.37-.01-.75-.09-1.11-.09-.34-.49-.77-.59-1.11v-.66c-.07-.24-.16-.47-.27-.7-.2-1.49 0-3 .6-4.38.22-.59 0-1.18.17-1.85.33-1.05.87-2.22 1.28-3.25.17-.53.37-1.06.6-1.57.4-.67 1.11-1.35 1.44-2.02.23-.42.18-.86.42-1.22.42-.63 1.18-.7 1.79-1.11.61-.41.65-1.17 1.02-1.67s.98-.59 1.28-1.05c.67-1.08 1.24-2.23 1.7-3.43.34-1.01.23-2.35.77-3.16l1.19-1.4c.49-.29.93-.3 1.36-.61l1.53-1.85c.5-.38 1.03-.67 1.53-1.05l.84-.97c.53-.32 1.23-.32 1.79-.61 0 1.68.82 2.22 1.44 3.16.37.76.68 1.55.94 2.36.47 1.3 0 3.34.42 4.65.67 1.3 1.5 2.51 2.46 3.6l.93.7c.13.18.13.34.26.52l1.36 1.32c.26.4.31.77.68 1.05.67.5 1.41.68 2.12 1.11.76.66 1.59 1.25 2.47 1.75.77.31 1.97.44 2.46 1.11.39.91.7 1.84.93 2.8.18.49.58.97.77 1.41.01.24.04.47.09.7 0 .23.53.53.68.79.4.69.34 1.69 1.35 1.75.21-.31.3-.68.26-1.05-.24-.34-.16-.79-.33-1.23-.36-.77-.67-1.56-.94-2.37-.08-.7-.19-1.41-.33-2.1-.09-.23-.41-.57-.51-.79-.21-.44-.19-.82-.42-1.22-.23-.4-.45-.24-.69-.44-.23-.2-.51-.73-.84-.96-1-.69-2.16-.97-3.23-1.58-.77-.43-1.51-.9-2.22-1.41-.18-.2-.34-.4-.51-.61-.45-.31-1.31-.33-1.62-.79-1.27-1.75-2.3-3.66-3.05-5.69-.68-2.01-.41-4.79-1.11-6.76-.22-.62-.67-1.39-.85-2.1v-3.37c.01-.58-.01-1.17-.08-1.75.57-1.34 1.28-2.62 2.12-3.81.13-.21.07-.38.17-.62.31-.72.77-1.41 1.11-2.22.3.21.98.49 1.19.79.14.31.26.64.34.97.16.39.59.77.77 1.11s.19.72.42 1.11l.85.79c.32.49.43 1.02.75 1.49l.77.7c.12.21 0 .42.18.61.33.56.84 1.11 1.19 1.67.01.15.04.3.09.44.29.5.99.96 1.26 1.49.51.95.88 1.91 1.45 2.8.35.54.97 1.11 1.28 1.67.02.15.04.29.08.43.34.55 1.11.79 1.53 1.32.39.66.84 1.27 1.36 1.83.24.18.47.1.75.27l.94 1.11c.35.21.73.17 1.02.43.1.1 0 .22.08.36l.6.61.17.61c.55.87 1.63 1.35 2.22 2.22.6 1.05 1.06 2.17 1.36 3.34.57 1.91-.17 3.48-.51 4.9l-.17 5.97c-.18.69-.65 1.05-.85 1.49.01.27-.02.53-.09.79-.52 1.14-.97 2.31-1.35 3.5-.45 1.72.51 3.6.85 4.65.34 1.05.12 2.22.42 3.34.35 1.64.52 3.32.51 5 .25.91.33 1.86.26 2.8 0 .1-.23.36-.26.43v1.32c-.13.42-.48.98-.6 1.4l-.17 1.32c-.54 1.39-1.94 3-2.04 4.65.09.09.19.16.31.21.12.05.24.07.37.06l.77-.79c.22-.33.17-.75.34-1.11.08-.19.32-.36.42-.52.1-.17.16-.63.34-.97.89-1.38 1.63-2.85 2.22-4.38.28-.92-.21-1.92-.26-2.64.07-1.73.01-3.45-.17-5.17v-1.78c-.71-1.9-.94-3.95-.69-5.96v-.88c.35-.87.81-1.7 1.36-2.46.41-.69.38-1.6.77-2.37.18-.34.61-.71.77-1.05.4-.89.11-2.16.33-3.16.22-1 .5-1.78.69-2.55.11-.79.08-1.59-.09-2.37v-2.89c-.1-.36-.16-.74-.17-1.11 1.24 0 2.34.16 3.56.18.19.37.49.68.85.88.95.46 2.54-.19 3.65.09.36.11.73.17 1.11.17.39-.05.79-.08 1.19-.08.79.34 1.51.81 2.13 1.4l.42.61c.27.19.59.17.84.36l.77.87.34.09c.5.49.93 1.05 1.28 1.67l.84.79c.21.31.17.6.34.97.18.37.59.72.77 1.05.18.32.14.68.34.97.2.29.59.41.84.61.26.2.32.55.51.79s.85.61 1.19.97c.2.31.37.63.51.97l.77.7c.27.44.5 1.26.94 1.49l.77.09c.21.09.4.4.59.52.55.36 1.11.5 1.62.88s.62 1.11 1.02 1.76c.4.64 1.11 1.53 1.61 2.37.35.58 1.49.67 2.04 1.11.31.21.44.64.68.96.23.31.76.54 1.02.88.25.33.35.71.6 1.11.25.4.76.32 1.11.61.34.29.57.86.93 1.11.48.24.91.57 1.28.97.12.19 0 .3.18.44l.77.52c.4.55.62 1.22 1.19 1.58.3.19.54.17.84.36.68.4.59 1.41 1.45 1.49.54-.14 1.87 1.65 2.28 2.1.16.17.58.34.69.52v2.55c.35.74.53 1.55.51 2.37.31.22.3.41.84.43.09-.09.15-.2.2-.32s.06-.25.06-.38c-.39-.39-.14-1.02-.33-1.67 0-.18-.29-.58-.34-.79-.24-.95.29-2.22-.09-3.07l-.68-.7v-.54c-.24-.49-1.11-.53-1.44-.97-.33-.43-.49-.98-.76-1.11-.28-.13-.61-.08-.85-.27-.46-.38-.65-1.27-1.02-1.76s-1.11-.59-1.52-.97c-.27-.21-.23-.67-.43-.96-.34-.52-1.04-.58-1.53-.97-.67-.56-.9-1.68-1.61-2.22l-.34-.09c-.4-.3-.61-.92-1.02-1.23-.32-.19-.63-.39-.93-.61l-.85-1.05c-.49-.39-1.17-.63-1.52-1.11-.36-.48-.51-1.11-.85-1.58-.19-.27-.5-.33-.76-.52-.67-.51-1.11-1.11-1.86-1.67-.75-.56-.98-1.62-1.62-2.1-.64-.48-1.3-.52-1.79-.97-.69-.62-.61-1.48-1.79-1.67v-.27c-.21-.1-.38-.25-.51-.43h.18c.47.28 1.3 0 1.86.18.19 0 .43.28.6.34l.59.09c.09.12.18.23.26.36l.69-.09c.09 0 .3.31.42.34h.93c.51.23 1.11.82 1.62 1.11l1.63.17c.7.29 1.41.96 2.12 1.22.71.27 1.11.23 1.79.52.64.4 1.24.88 1.79 1.41.69.36 1.33.79 1.92 1.29.3.38.46.78.77 1.11.31.33 1.03.61 1.35 1.11.64.89.94 1.91 1.53 2.89.09.16.37.34.42.53v.88c.41.78.9 1.53 1.44 2.22.34.49 1.19 1.7 1.87 1.75.18-.22.28-.5.25-.79-.39-.33-.34-.66-.6-1.11-.14-.28-.67-.34-.84-.61-.82-1.16-1.3-2.53-1.36-3.95-.61-.46-1.11-1.06-1.44-1.76-.41-.62-1.19-.99-1.62-1.58-.57-1.06-1.32-2.01-2.22-2.8-.58-.4-1.24-.43-1.86-.79-.52-.4-1.06-.77-1.62-1.11-.98-.29-1.95-.64-2.88-1.05-.47-.29-.99-.73-1.44-.97h-.34c-.17-.21-.34-.41-.51-.61-.36-.23-.73-.44-1.11-.62h-1.53c-.74-.36-1.45-.77-2.13-1.22-.55-.14-1.09-.31-1.61-.52-.37-.22-.59-.88-.94-1.11-.35-.23-.75-.3-1.11-.52-.36-.22-.42-1.11-.68-1.49-.26-.38-.54-.34-.69-.61-.14-.27 0-.49-.17-.71-.43-.7-.98-1.32-1.62-1.83l-1.77-.44c-.55-.18-1.09-.38-1.62-.61-.24-.13-.6-.58-.84-.7l-1.2-.18c-1.46-.6-3.45-.64-5.01-1.22-1.26-.47-2.46-1.55-3.74-2.01-.9-.27-1.77-.59-2.63-.97-.14-.14-.29-.29-.42-.44-.42-.2-.79-.2-1.2-.43-.91-.56-1.46-2.59-2.03-3.59-.28-.48-.77-.93-1.02-1.41-.26-.48-.16-.52-.34-.79-.19-.27-.82-.62-1.11-1.05-.29-.42-.28-.69-.51-1.06-1.04-1.62-3.95-2.04-5.01-3.59-.13-.19-.06-.4-.18-.61-.74-1.45-1.63-3.09-2.46-4.45-.21-.36-.21-.78-.42-1.11-.39-.68-1.19-1.11-1.61-1.76-.42-.64-.61-1.33-1.02-2.01-.65-1.11-1.65-2.22-2.22-3.25-.32-.62-.42-1.11-.75-1.76-.45-.85-1.38-1.55-1.71-2.55l125.79-.18Zm61.17-.29h21.37v35.59c.02 3.43-.62 6.83-1.91 10.01-1.32 3.18-3.38 6-6.01 8.22-2.49 2.22-5.41 3.91-8.58 4.95-4.86 1.43-9.91 2.11-14.97 2-3.33 0-7.05-.21-11.04-.61-3.43-.28-6.8-1.1-9.98-2.42-2.76-1.25-5.28-3-7.41-5.16-2.02-1.92-3.58-4.27-4.56-6.88-1.21-3.23-1.88-6.65-1.99-10.1V.98h21.32v36.41c-.08 1.43.17 2.85.71 4.17.55 1.32 1.38 2.5 2.45 3.45 2.1 1.83 5 2.75 8.74 2.75s6.6-.9 8.71-2.7c1.07-.96 1.9-2.14 2.45-3.47.55-1.33.79-2.76.7-4.19V.98Zm41.15 0h35.58c7.74 0 13.55 1.59 17.41 4.77 3.86 3.18 5.79 7.72 5.79 13.61s-2.1 10.75-6.31 14.15c-4.21 3.4-10.63 5.09-19.27 5.09h-11.72v22.14h-21.48V.98Zm21.48 25.58h5.26c4.15 0 7.06-.62 8.73-1.87.78-.52 1.42-1.23 1.86-2.06.44-.83.67-1.76.66-2.7 0-.91-.19-1.81-.58-2.64-.38-.83-.94-1.56-1.64-2.14-1.47-1.3-4.21-1.95-8.21-1.96h-6.08v13.37Zm48.63 14.46 20.36-1.11c.25 2.38 1.18 4.64 2.7 6.49 2.22 2.4 5.37 3.6 9.45 3.6 2.49.16 4.97-.49 7.07-1.85.75-.41 1.39-1.01 1.83-1.75.45-.73.69-1.58.71-2.44.02-.86-.19-1.71-.61-2.46-.41-.75-1.02-1.38-1.76-1.83-1.58-1.22-5.23-2.38-10.96-3.46-9.4-1.81-16.1-4.22-20.09-7.24-1.88-1.27-3.41-2.99-4.47-5-1.06-2.01-1.6-4.25-1.58-6.52.03-3.16 1.12-6.22 3.1-8.69 2.42-2.99 5.65-5.22 9.29-6.44 4.15-1.56 9.83-2.34 17.04-2.34 8.88 0 15.62 1.42 20.23 4.26 4.61 2.84 7.38 7.36 8.3 13.56l-20.21 1.01c-.3-2.31-1.5-4.4-3.33-5.84-2.14-1.35-4.65-1.99-7.17-1.83-1.97-.13-3.93.34-5.61 1.37-.57.35-1.04.84-1.37 1.42-.33.58-.51 1.24-.51 1.91.03.52.19 1.03.47 1.48.28.45.66.82 1.11 1.08 1.02.75 3.42 1.48 7.2 2.22 9.36 1.73 16.07 3.49 20.11 5.27 3.5 1.35 6.57 3.63 8.87 6.61 1.82 2.58 2.79 5.67 2.76 8.83 0 3.85-1.31 7.58-3.69 10.59-2.66 3.38-6.23 5.93-10.29 7.34-5.35 1.82-10.99 2.67-16.64 2.51-11.78 0-19.94-1.96-24.48-5.87-2.24-1.84-4.08-4.12-5.43-6.68-1.35-2.57-2.18-5.38-2.43-8.27l.04.06ZM247.2 76.38h17.66c2.86-.09 5.72.33 8.43 1.25 2.03.75 3.85 1.98 5.31 3.57 1.4 1.55 2.44 3.4 3.04 5.4.64 2.12.97 4.32.95 6.53.13 2.86-.35 5.72-1.41 8.38-.9 1.94-2.23 3.64-3.89 4.98-1.56 1.29-3.39 2.2-5.36 2.68-2.32.58-4.69.89-7.08.92h-17.66V76.37Zm11.88 7.64v18.4h2.91c1.79.11 3.59-.13 5.29-.72 1.1-.52 1.97-1.42 2.46-2.52.71-1.86 1.01-3.86.89-5.85 0-3.57-.65-6.02-1.99-7.34-1.33-1.32-3.53-1.97-6.6-1.97h-2.96Zm30.24-7.64h11.91v33.72h-11.91V76.38Zm20.62 33.72V76.38h19.81c2.83-.09 5.66.19 8.42.83 1.86.49 3.5 1.57 4.7 3.07 1.08 1.48 1.7 3.25 1.78 5.08.07 1.83-.4 3.65-1.36 5.21-.95 1.41-2.24 2.56-3.75 3.34-1.32.63-2.73 1.08-4.17 1.33 1.08.28 2.12.7 3.09 1.25.69.52 1.33 1.11 1.9 1.77.62.64 1.18 1.35 1.66 2.1l5.77 9.79h-13.44l-6.32-10.36c-.55-1-1.31-1.88-2.22-2.57-.88-.52-1.89-.79-2.91-.78h-1.05v13.7l-11.91-.03Zm11.96-20.08h5.03c1.06-.07 2.11-.22 3.14-.46.75-.13 1.43-.52 1.92-1.11.49-.53.76-1.23.75-1.95.02-.48-.07-.96-.28-1.4-.21-.44-.52-.81-.91-1.1-.78-.58-2.22-.87-4.44-.87h-5.2v6.88Zm29.67-13.63h31.93v7.22h-19.97v5.35h18.49v6.87h-18.49v6.67h20.51v7.63h-32.47V76.39Zm64.46 19.94 10.43 2.75c-.6 2.36-1.74 4.56-3.33 6.41-1.52 1.73-3.45 3.07-5.6 3.88-2.74.96-5.62 1.4-8.52 1.31-3.49.11-6.96-.43-10.25-1.59-2.78-1.15-5.16-3.08-6.87-5.56-2.03-3.04-3.05-6.64-2.9-10.3 0-5.57 1.69-9.85 5.08-12.86 3.39-3 8.19-4.49 14.42-4.45 4.85 0 8.66.86 11.44 2.58 2.89 1.86 5.07 4.65 6.18 7.91l-10.54 1.91c-.24-.8-.61-1.55-1.11-2.22-.66-.8-1.5-1.43-2.44-1.85-1.02-.45-2.12-.67-3.23-.65-1.18-.07-2.37.16-3.45.66s-2.02 1.25-2.74 2.19c-1.09 1.42-1.63 3.64-1.63 6.67 0 3.7.64 6.27 1.94 7.68.71.71 1.56 1.27 2.51 1.63.94.36 1.95.51 2.95.45 1.87.14 3.72-.46 5.16-1.67 1.28-1.36 2.14-3.06 2.5-4.89Zm13.49-19.94h36.17v8.32h-12.2v25.4h-11.82v-25.4h-12.15v-8.32Zm36.71 50.04H.57v2.9h465.65v-2.9ZM0 188.09l10.23-37.64h5.55l-1.03 3.83c1.67-1.41 3.54-2.57 5.55-3.44 1.65-.65 3.42-.98 5.19-.97 3.05-.11 6.04.89 8.41 2.82 1.13 1.01 2.02 2.26 2.59 3.66.58 1.4.83 2.92.73 4.43.03 2.69-.6 5.34-1.83 7.73-1.09 2.17-2.63 4.08-4.51 5.62-1.62 1.33-3.45 2.39-5.4 3.14-1.78.64-3.65.98-5.55.99-1.93.08-3.85-.33-5.58-1.19-1.73-.87-3.21-2.16-4.3-3.76l-4 14.79H0Zm11.88-21.51c-.1 1.42.1 2.85.58 4.19.61 1.16 1.58 2.09 2.75 2.66 1.37.7 2.9 1.06 4.44 1.02 1.67.02 3.31-.37 4.78-1.15 1.47-.78 2.73-1.91 3.66-3.3 2.02-2.63 3.15-5.84 3.23-9.16.05-1-.12-1.99-.5-2.92-.38-.92-.97-1.75-1.71-2.41-1.5-1.28-3.42-1.95-5.38-1.88-1.48-.01-2.95.31-4.29.93-1.4.68-2.64 1.63-3.67 2.8-1.18 1.33-2.11 2.86-2.76 4.52-.67 1.48-1.04 3.07-1.11 4.69Zm28.56.76c-.05-2.51.48-5.01 1.53-7.29 1.06-2.28 2.61-4.29 4.56-5.88 3.35-2.87 7.74-4.3 13.18-4.3 3.68-.18 7.32.9 10.31 3.07 1.26.97 2.27 2.23 2.95 3.67.68 1.44 1.01 3.02.95 4.62.01 3.08-.84 6.1-2.46 8.71-1.68 2.74-4.14 4.9-7.05 6.23-2.99 1.42-6.26 2.16-9.57 2.15-2.55.01-5.08-.47-7.45-1.41-2.05-.75-3.84-2.08-5.16-3.83-1.21-1.66-1.85-3.67-1.83-5.73h.06Zm5.99-.47c-.07 1.09.11 2.17.52 3.18.42 1.01 1.06 1.9 1.87 2.62 1.73 1.37 3.89 2.07 6.09 1.98 1.3 0 2.59-.2 3.83-.6 1.27-.4 2.47-1.01 3.53-1.82 1.04-.77 1.96-1.7 2.73-2.74.76-1.03 1.38-2.15 1.84-3.34.66-1.53 1.01-3.18 1.04-4.85.06-1.07-.13-2.14-.55-3.13-.42-.99-1.06-1.86-1.87-2.56-1.72-1.39-3.87-2.11-6.08-2.04-1.77-.02-3.53.33-5.16 1.03-1.59.72-3.02 1.75-4.2 3.02-1.26 1.31-2.21 2.9-2.77 4.63-.53 1.48-.83 3.04-.88 4.61h.06Zm36.22 10.8-3.68-27.22h5.8l1.56 12.23.61 6.85c0 .52.09 1.54.21 3.09.69-1.73 1.26-3.06 1.73-3.99.47-.93 1.22-2.22 2.22-3.97l8.41-14.21h6.54l1.05 13.64c.18 2.07.3 4.86.36 8.36 1.14-2.33 2.97-5.53 5.48-9.59l7.64-12.42h6.05l-17.36 27.22h-6.3l-1.24-15.97c-.07-.99-.13-2.92-.21-5.82-.92 1.85-2.03 3.82-3.33 5.92l-9.33 15.84-6.21.03Zm67.11-9.14 5.86.39c-.84 2.22-2.78 4.33-5.81 6.33-3.23 2.06-7 3.1-10.83 3-2.47.03-4.93-.44-7.21-1.39-2.04-.81-3.78-2.23-4.99-4.06-1.15-1.8-1.75-3.91-1.72-6.05.03-3.08.97-6.08 2.68-8.63 1.68-2.69 4.09-4.85 6.94-6.22 2.88-1.36 6.03-2.06 9.22-2.04 4.22 0 7.59 1.01 10.11 3.01 1.23.97 2.22 2.23 2.87 3.65.66 1.43.96 2.99.9 4.56 0 1.37-.16 2.74-.47 4.08h-26.08c-.07.48-.11.96-.12 1.45-.08 1.07.08 2.15.46 3.15.38 1.01.98 1.91 1.75 2.66 1.53 1.34 3.51 2.06 5.55 2.01 2.13-.01 4.23-.53 6.11-1.52 1.99-.97 3.64-2.52 4.74-4.45l.03.05Zm-17.56-6.83h19.82v-1.01c.07-1-.1-1.99-.49-2.92-.38-.92-.98-1.74-1.73-2.39-1.66-1.29-3.72-1.95-5.82-1.86-2.49-.02-4.94.69-7.03 2.05-2.21 1.47-3.88 3.62-4.75 6.13Zm28.09 16.02 7.41-27.22h5.34l-1.53 5.56c1.53-1.84 3.35-3.41 5.38-4.67 1.61-.97 3.46-1.49 5.34-1.51 1.53.07 3.03.42 4.44 1.03l-2.46 4.31c-1.04-.6-2.23-.91-3.43-.9-2.42.12-4.72 1.08-6.51 2.71-2.22 1.8-3.98 5.05-5.29 9.74l-2.94 10.9-5.73.04Zm18.46 10.42 10.22-37.64h5.55l-1.03 3.83c1.67-1.42 3.54-2.58 5.55-3.44 1.65-.65 3.41-.98 5.18-.97 3.06-.14 6.06.85 8.45 2.77 1.13 1.01 2.02 2.26 2.59 3.66.58 1.4.83 2.92.74 4.43.03 2.69-.6 5.34-1.83 7.73-1.09 2.17-2.63 4.08-4.5 5.62-1.62 1.32-3.45 2.38-5.4 3.13-1.8.66-3.7.99-5.61.99-1.93.08-3.85-.33-5.58-1.19-1.73-.87-3.21-2.16-4.3-3.76l-4 14.79-6.01.06Zm11.82-21.51c-.09 1.42.1 2.85.57 4.19.61 1.16 1.57 2.09 2.75 2.66 1.37.7 2.9 1.05 4.44 1.02 1.67.02 3.31-.37 4.78-1.15s2.73-1.91 3.66-3.3c2.02-2.63 3.15-5.84 3.22-9.16.05-1-.12-2-.51-2.92-.38-.92-.97-1.75-1.71-2.41-1.5-1.28-3.42-1.95-5.38-1.88-1.48-.01-2.95.31-4.29.93-1.4.68-2.64 1.63-3.66 2.8-1.19 1.34-2.14 2.88-2.81 4.55-.63 1.46-.99 3.02-1.05 4.6v.06Zm27.56 11.12 7.42-27.18h5.34l-1.54 5.56c1.53-1.84 3.35-3.41 5.38-4.67 1.61-.97 3.45-1.49 5.34-1.51 1.53.07 3.03.42 4.44 1.03l-2.46 4.31c-1.04-.6-2.23-.91-3.43-.9-2.42.12-4.72 1.08-6.51 2.71-2.22 1.8-3.98 5.05-5.29 9.74l-2.94 10.9h-5.74Zm22.32-10.33c-.05-2.51.48-5.01 1.53-7.29 1.06-2.28 2.61-4.29 4.56-5.88 3.35-2.87 7.74-4.3 13.18-4.3 3.68-.18 7.31.9 10.29 3.07 1.27.97 2.28 2.23 2.96 3.67.68 1.44 1.01 3.02.96 4.62-.01 3.05-.87 6.03-2.48 8.62-1.66 2.72-4.09 4.89-6.99 6.23-2.99 1.43-6.25 2.16-9.56 2.15-2.56.04-5.11-.43-7.5-1.36-2.05-.75-3.84-2.08-5.16-3.82-1.2-1.68-1.83-3.71-1.79-5.78v.09Zm5.99-.47c-.07 1.08.11 2.17.52 3.18.42 1.01 1.06 1.9 1.87 2.62 1.73 1.37 3.89 2.07 6.09 1.98 1.3 0 2.59-.2 3.83-.6 1.27-.4 2.47-1.01 3.53-1.82 1.06-.79 2-1.73 2.78-2.79.76-1.03 1.38-2.15 1.84-3.34.66-1.53 1.01-3.18 1.03-4.85.06-1.07-.13-2.14-.54-3.13-.42-.99-1.06-1.86-1.86-2.57-1.72-1.39-3.87-2.11-6.08-2.04-1.77-.02-3.53.33-5.16 1.03-1.59.72-3.02 1.75-4.21 3.02-1.25 1.32-2.19 2.9-2.76 4.63-.53 1.47-.83 3.02-.88 4.58v.09Zm43.63 6.97-1 3.78c-1.38.29-2.78.44-4.19.44-2 .1-3.98-.38-5.72-1.37-.5-.28-.92-.7-1.2-1.2-.28-.5-.42-1.08-.41-1.65.16-1.4.44-2.79.87-4.14l4.3-15.88h-4.74l.93-3.55h4.74l1.84-6.67 6.89-3.19-2.69 9.84h5.92l-1 3.55h-5.86l-4.12 15.07c-.34 1.12-.6 2.27-.76 3.44-.01.25.04.49.15.71.11.22.27.41.48.55.61.35 1.31.5 2.01.45 1.19.05 2.38 0 3.56-.17Zm29.43-5.37 5.86.39c-.84 2.23-2.78 4.33-5.81 6.33-3.24 2.06-7.01 3.1-10.84 3-2.47.02-4.92-.45-7.2-1.39-2.04-.81-3.78-2.23-4.99-4.06-1.15-1.8-1.75-3.91-1.72-6.05.03-3.08.97-6.08 2.68-8.63 1.67-2.69 4.08-4.85 6.93-6.22 2.88-1.37 6.04-2.06 9.23-2.04 4.21 0 7.58 1.01 10.11 3.01 1.23.97 2.22 2.23 2.87 3.65.66 1.43.96 2.99.9 4.56 0 1.37-.16 2.74-.46 4.08h-26.02c-.07.48-.12.96-.12 1.45-.07 1.08.09 2.16.49 3.16.39 1.01 1 1.91 1.79 2.65 1.53 1.34 3.51 2.06 5.55 2.01 2.12-.01 4.21-.54 6.09-1.52 1.96-.99 3.59-2.53 4.68-4.45v.05Zm-17.5-6.86h19.82v-1.01c.07-1-.1-1.99-.49-2.92-.39-.92-.98-1.74-1.73-2.39-1.66-1.29-3.73-1.95-5.82-1.86-2.49-.02-4.94.69-7.03 2.05-2.21 1.47-3.88 3.62-4.75 6.13Zm52.46 6.12 6.05.39c-1.29 3.16-3.56 5.83-6.46 7.62-2.89 1.68-6.19 2.53-9.53 2.48-3.35.16-6.65-.85-9.35-2.86-1.19-.95-2.13-2.18-2.76-3.57-.62-1.39-.91-2.91-.84-4.44.02-3.06.82-6.07 2.31-8.74 1.47-2.8 3.77-5.08 6.58-6.53 3.04-1.53 6.4-2.29 9.8-2.22 3.79 0 6.81.82 9.03 2.48 1.05.73 1.9 1.71 2.48 2.85.58 1.14.87 2.4.85 3.68l-5.92.32c.02-.78-.14-1.56-.48-2.27-.34-.71-.84-1.32-1.47-1.79-1.47-1.04-3.26-1.56-5.06-1.47-2.23-.05-4.42.56-6.3 1.76-1.9 1.33-3.35 3.2-4.18 5.36-.97 2.18-1.48 4.53-1.52 6.91-.07.96.07 1.93.42 2.83.35.9.89 1.72 1.59 2.38 1.37 1.17 3.13 1.79 4.92 1.73 2-.01 3.95-.6 5.62-1.7 1.91-1.28 3.38-3.12 4.23-5.26v.06Zm22.38 6.12-1 3.78c-1.38.29-2.78.44-4.19.44-2 .1-3.99-.37-5.73-1.37-.49-.28-.9-.69-1.18-1.18-.28-.49-.42-1.05-.42-1.61.15-1.4.44-2.79.87-4.14l4.29-15.84h-4.74l.94-3.55h4.74l1.83-6.67 6.89-3.19-2.67 9.84h5.92l-1 3.55h-5.87l-4.1 15.07c-.34 1.12-.6 2.27-.76 3.44-.02.25.03.49.14.71.11.22.27.41.47.55.61.35 1.32.5 2.02.44 1.19.02 2.39-.07 3.56-.28Zm3.33 3.77 7.41-27.22h5.99l-7.41 27.22h-5.99Zm8.87-32.34 1.42-5.2h5.99l-1.42 5.2h-5.99Zm6.1 21.97c-.05-2.52.48-5.01 1.53-7.29 1.06-2.28 2.62-4.29 4.57-5.88 3.35-2.87 7.74-4.3 13.17-4.3 3.68-.18 7.32.9 10.31 3.07 1.26.97 2.27 2.23 2.95 3.67.68 1.44 1.01 3.02.95 4.62.01 3.08-.84 6.1-2.46 8.71-1.67 2.71-4.11 4.86-7 6.17-2.99 1.42-6.26 2.16-9.57 2.15-2.56.03-5.11-.43-7.5-1.36-2.05-.75-3.84-2.08-5.16-3.83-1.2-1.66-1.83-3.67-1.8-5.73h.01Zm5.98-.47c-.07 1.09.11 2.17.52 3.18.41 1.01 1.06 1.9 1.87 2.62 1.73 1.37 3.89 2.07 6.09 1.98 1.3 0 2.59-.2 3.83-.6 1.28-.4 2.47-1.01 3.54-1.82 1.06-.79 1.99-1.73 2.77-2.79.76-1.02 1.39-2.15 1.85-3.34.66-1.53 1.01-3.18 1.03-4.85.06-1.07-.13-2.14-.55-3.13-.42-.99-1.06-1.86-1.87-2.56-1.72-1.39-3.87-2.11-6.08-2.04-1.77-.02-3.53.33-5.16 1.03-1.59.72-3.01 1.75-4.2 3.02-1.25 1.32-2.19 2.9-2.76 4.63-.54 1.5-.85 3.08-.9 4.67h.01Zm29.48 10.8 7.42-27.22h5.47l-1.27 4.75c2.05-1.65 4.32-3.01 6.74-4.05 2.03-.85 4.2-1.28 6.4-1.28 2.41-.14 4.8.5 6.82 1.82.78.54 1.42 1.27 1.85 2.12.43.85.65 1.79.63 2.74-.11 1.61-.42 3.2-.92 4.74l-4.81 16.38h-5.99l4.97-17.24c.4-1.2.64-2.45.73-3.71 0-.45-.1-.89-.32-1.28s-.53-.72-.92-.94c-1.08-.63-2.33-.93-3.58-.85-3.01-.05-5.96.84-8.43 2.56-2.46 1.71-4.28 4.64-5.44 8.79l-3.39 12.65-5.95.02Z" data-name="Layer 9"/>
</svg>
